<svg id="Layer_1" data-name="Layer 1" xmlns="http://www.w3.org/2000/svg" viewBox="0 0 678.98 230.46"><defs><style>.cls-1{fill:#34134c;}.cls-2{fill:#ed8060;}.cls-3{fill:#6cc299;}.cls-4{fill:#f6ac23;}.cls-5{fill:#454545;}</style></defs><path class="cls-1" d="M673.68,497.49a9.29,9.29,0,0,0-13.73.06,13.3,13.3,0,0,0,0,15.88,8.67,8.67,0,0,0,6.88,3.05,8.5,8.5,0,0,0,6.85-3.05,13.39,13.39,0,0,0,0-15.94Zm56,0a8.79,8.79,0,0,0-6.88-3,8.65,8.65,0,0,0-6.85,3,11.7,11.7,0,0,0-2.63,7.92,11.82,11.82,0,0,0,2.63,8,9.41,9.41,0,0,0,13.76,0,13.41,13.41,0,0,0,0-15.91Zm0,0a8.79,8.79,0,0,0-6.88-3,8.65,8.65,0,0,0-6.85,3,11.7,11.7,0,0,0-2.63,7.92,11.82,11.82,0,0,0,2.63,8,9.41,9.41,0,0,0,13.76,0,13.41,13.41,0,0,0,0-15.91Zm-56,0a9.29,9.29,0,0,0-13.73.06,13.3,13.3,0,0,0,0,15.88,8.67,8.67,0,0,0,6.88,3.05,8.5,8.5,0,0,0,6.85-3.05,13.39,13.39,0,0,0,0-15.94ZM160,419V575h679V419ZM546,520.12a18.24,18.24,0,0,1-8.25,6.06A31.8,31.8,0,0,1,526,528.23a42.38,42.38,0,0,1-14.13-2.48,39.11,39.11,0,0,1-12.2-6.82l5.81-11.65a35.18,35.18,0,0,0,10.21,6.27A27.65,27.65,0,0,0,526.17,516a9.46,9.46,0,0,0,5.23-1.23,4,4,0,0,0,1.93-3.58,4.29,4.29,0,0,0-1.44-3.27,10.61,10.61,0,0,0-3.57-2.08c-1.44-.52-3.46-1.1-6.06-1.83a76.42,76.42,0,0,1-9.73-3.28,17.28,17.28,0,0,1-6.54-5.07c-1.84-2.24-2.72-5.26-2.72-9a15.53,15.53,0,0,1,2.81-9.29,17.86,17.86,0,0,1,8-6.15,31.1,31.1,0,0,1,12-2.17,44.1,44.1,0,0,1,12.24,1.74,40.87,40.87,0,0,1,10.58,4.71l-5.63,11.9a48.6,48.6,0,0,0-9.72-4.41,29.22,29.22,0,0,0-8.69-1.71,8.12,8.12,0,0,0-4.37,1,3.35,3.35,0,0,0-1.59,3,4,4,0,0,0,1.4,3.15,10.33,10.33,0,0,0,3.43,2c1.34.52,3.36,1.16,6,2a78.8,78.8,0,0,1,9.82,3.42,17.23,17.23,0,0,1,6.64,5.26,14.49,14.49,0,0,1,2.78,9.24A15.75,15.75,0,0,1,546,520.12Zm33.68,7.1a27,27,0,0,1-6.46.76,14.85,14.85,0,0,1-10.55-3.76c-2.69-2.47-4-5.93-4-10.34V495h-6.11v-9.63h6.11V473.12H573v12.23h11.41V495H573v16.61c0,3.12,1.28,4.65,3.82,4.65a14.08,14.08,0,0,0,5.63-1.47l2.78,10.28A22.52,22.52,0,0,1,579.64,527.22Zm55.57.12h-14.5v-7.19c-3,5.11-7.68,7.71-14.1,7.83q-7.15,0-11.47-4.61c-2.84-3.06-4.25-7.16-4.25-12.27V483.24h14.5v23.7a8.34,8.34,0,0,0,1.93,5.87,6.5,6.5,0,0,0,5.16,2.15,7.65,7.65,0,0,0,6-2.82,11.09,11.09,0,0,0,2.2-7.16V483.24h14.5Zm55.6,0h-14.5v-5.72a14.59,14.59,0,0,1-5.59,4.68,16.83,16.83,0,0,1-7.47,1.59,20.34,20.34,0,0,1-10.76-2.84,19.32,19.32,0,0,1-7.22-8,26.56,26.56,0,0,1-2.54-11.95,26,26,0,0,1,2.51-11.75,18.78,18.78,0,0,1,7.1-7.83A20.11,20.11,0,0,1,663,482.75a17.58,17.58,0,0,1,7.61,1.62,16.43,16.43,0,0,1,5.75,4.65V466.85h14.5ZM735.4,525a29.86,29.86,0,0,1-25.29,0,20.49,20.49,0,0,1-8.41-7.92,24.8,24.8,0,0,1,0-23.65,20.23,20.23,0,0,1,8.41-7.89,29.86,29.86,0,0,1,25.29,0,20.59,20.59,0,0,1,8.48,7.89,24.88,24.88,0,0,1,0,23.65A20.86,20.86,0,0,1,735.4,525Zm43.68,2.32-7.83-13.46-8.72,13.46h-16l15-22.6-14-21.5h16.6l7.1,12.39,7.68-12.39H794.8l-13.92,21.5,14.9,22.6Zm-56.31-32.85a8.65,8.65,0,0,0-6.85,3,11.7,11.7,0,0,0-2.63,7.92,11.82,11.82,0,0,0,2.63,8,9.41,9.41,0,0,0,13.76,0,13.41,13.41,0,0,0,0-15.91A8.79,8.79,0,0,0,722.77,494.49Zm-55.94,0a8.68,8.68,0,0,0-6.88,3.06,13.3,13.3,0,0,0,0,15.88,8.67,8.67,0,0,0,6.88,3.05,8.5,8.5,0,0,0,6.85-3.05,13.39,13.39,0,0,0,0-15.94A8.64,8.64,0,0,0,666.83,494.49Zm6.85,3a9.29,9.29,0,0,0-13.73.06,13.3,13.3,0,0,0,0,15.88,8.67,8.67,0,0,0,6.88,3.05,8.5,8.5,0,0,0,6.85-3.05,13.39,13.39,0,0,0,0-15.94Zm0,0a9.29,9.29,0,0,0-13.73.06,13.3,13.3,0,0,0,0,15.88,8.67,8.67,0,0,0,6.88,3.05,8.5,8.5,0,0,0,6.85-3.05,13.39,13.39,0,0,0,0-15.94Z" transform="translate(-159.96 -377.63)"/><rect class="cls-2" width="84.53" height="29.83"/><rect class="cls-1" x="84.53" width="84.53" height="29.83"/><rect class="cls-3" x="169.05" width="84.53" height="29.83"/><rect class="cls-4" x="253.58" width="86.75" height="29.83"/><path class="cls-5" d="M170.69,584.88a7.16,7.16,0,1,1,0,14.31h-5.86v8.46h-2.27V584.88Zm0,12.17a4.66,4.66,0,0,0,3.49-1.42,5.36,5.36,0,0,0,0-7.18,4.66,4.66,0,0,0-3.49-1.42h-5.86v10Z" transform="translate(-159.96 -377.63)"/><path class="cls-5" d="M194.1,591.39h2.15v16.26H194.1v-3.19a7.28,7.28,0,0,1-6.57,3.58,8,8,0,0,1-5.93-2.47,8.67,8.67,0,0,1,0-12.1,8,8,0,0,1,5.93-2.47,7.28,7.28,0,0,1,6.57,3.58Zm-11,12.7a6.48,6.48,0,0,0,9.11,0,6.57,6.57,0,0,0,0-9.14,6.45,6.45,0,0,0-9.11,9.14Z" transform="translate(-159.96 -377.63)"/><path class="cls-5" d="M203,594.09a5.28,5.28,0,0,1,5.13-3v2.08a5.3,5.3,0,0,0-3.67,1.3,5.2,5.2,0,0,0-1.46,4.1v9H200.8V591.39H203Z" transform="translate(-159.96 -377.63)"/><path class="cls-5" d="M220,593.47h-4.68v9.85a2.8,2.8,0,0,0,.52,1.91,2.06,2.06,0,0,0,1.56.58c.7,0,1.56,0,2.6,0v1.89c-2.27.35-4,.18-5.12-.49s-1.71-1.95-1.71-3.84v-9.85h-3.41v-2.08h3.41v-3.9l2.15-.65v4.55H220Z" transform="translate(-159.96 -377.63)"/><path class="cls-5" d="M231.14,591a6.14,6.14,0,0,1,4.67,1.8,6.85,6.85,0,0,1,1.7,4.87v10h-2.14v-10a4.71,4.71,0,0,0-1.16-3.39,4.33,4.33,0,0,0-3.27-1.2,5.1,5.1,0,0,0-3.8,1.48,6.26,6.26,0,0,0-1.46,4.57v8.52h-2.15V591.39h2.15v2.54A6,6,0,0,1,231.14,591Z" transform="translate(-159.96 -377.63)"/><path class="cls-5" d="M249.19,591a7.39,7.39,0,0,1,5.84,2.55,8.89,8.89,0,0,1,2.22,6c0,.24,0,.58-.06,1H242.91a5.84,5.84,0,0,0,2.1,3.92,6.66,6.66,0,0,0,4.37,1.45,6.41,6.41,0,0,0,3.21-.77,5.14,5.14,0,0,0,2-2l1.89,1.11a7.78,7.78,0,0,1-2.93,2.73,8.76,8.76,0,0,1-4.23,1,8.41,8.41,0,0,1-6.24-2.41,9,9,0,0,1,0-12.19A8.14,8.14,0,0,1,249.19,591Zm0,2.08a6.1,6.1,0,0,0-6.28,5.43H255a6.07,6.07,0,0,0-2-4A5.78,5.78,0,0,0,249.19,593.08Z" transform="translate(-159.96 -377.63)"/><path class="cls-5" d="M262.82,594.09a5.28,5.28,0,0,1,5.13-3v2.08a5.3,5.3,0,0,0-3.67,1.3,5.2,5.2,0,0,0-1.46,4.1v9h-2.15V591.39h2.15Z" transform="translate(-159.96 -377.63)"/><path class="cls-5" d="M277.42,591a7.37,7.37,0,0,1,5.83,2.55,8.85,8.85,0,0,1,2.23,6c0,.24,0,.58-.06,1H271.14a5.84,5.84,0,0,0,2.1,3.92,6.66,6.66,0,0,0,4.37,1.45,6.41,6.41,0,0,0,3.21-.77,5.21,5.21,0,0,0,2-2l1.88,1.11a7.68,7.68,0,0,1-2.92,2.73,8.76,8.76,0,0,1-4.23,1,8.41,8.41,0,0,1-6.24-2.41,8.25,8.25,0,0,1-2.41-6.11,8.36,8.36,0,0,1,2.37-6.08A8.16,8.16,0,0,1,277.42,591Zm0,2.08a6.08,6.08,0,0,0-6.28,5.43h12.13a6.12,6.12,0,0,0-2-4A5.78,5.78,0,0,0,277.42,593.08Z" transform="translate(-159.96 -377.63)"/><path class="cls-5" d="M302.88,584.88H305v22.77h-2.15v-3.19a7.28,7.28,0,0,1-6.57,3.58,8,8,0,0,1-5.93-2.47,8.67,8.67,0,0,1,0-12.1,8,8,0,0,1,5.93-2.47,7.28,7.28,0,0,1,6.57,3.58Zm-11,19.21a6.48,6.48,0,0,0,9.11,0,6.57,6.57,0,0,0,0-9.14,6.48,6.48,0,0,0-9.11,0,6.57,6.57,0,0,0,0,9.14Z" transform="translate(-159.96 -377.63)"/><path class="cls-5" d="M337.29,591.39h2.07l-4.87,16.26h-2.34l-4.25-13.23-4.24,13.23h-2.33l-4.92-16.26h2.14l4.07,13.49,4.26-13.49h2.22l4.21,13.35Z" transform="translate(-159.96 -377.63)"/><path class="cls-5" d="M344.93,587.49a1.52,1.52,0,0,1-1.11.45,1.55,1.55,0,0,1-1.56-1.56,1.57,1.57,0,0,1,1.56-1.56,1.55,1.55,0,0,1,1.56,1.56A1.52,1.52,0,0,1,344.93,587.49Zm-2.18,20.16V591.39h2.15v16.26Z" transform="translate(-159.96 -377.63)"/><path class="cls-5" d="M358.07,593.47h-4.69v9.85a2.85,2.85,0,0,0,.52,1.91,2.07,2.07,0,0,0,1.57.58c.69,0,1.56,0,2.6,0v1.89c-2.28.35-4,.18-5.13-.49s-1.7-1.95-1.7-3.84v-9.85h-3.42v-2.08h3.42v-3.9l2.14-.65v4.55h4.69Z" transform="translate(-159.96 -377.63)"/><path class="cls-5" d="M369.25,591a6.12,6.12,0,0,1,4.67,1.8,6.81,6.81,0,0,1,1.71,4.87v10h-2.15v-10a4.7,4.7,0,0,0-1.15-3.39,4.33,4.33,0,0,0-3.27-1.2,5.12,5.12,0,0,0-3.81,1.48,6.3,6.3,0,0,0-1.46,4.57v8.52h-2.15V584.88h2.15v9A6,6,0,0,1,369.25,591Z" transform="translate(-159.96 -377.63)"/><path class="cls-5" d="M390.42,584.87h6.47l6.61,13.33,6.57-13.33h6.47v22.8h-5.27l0-14.44-5.83,12.16h-3.83l-5.86-12.16v14.44h-5.3Z" transform="translate(-159.96 -377.63)"/><path class="cls-5" d="M421,584.87h6v22.8h-6Z" transform="translate(-159.96 -377.63)"/><path class="cls-5" d="M445.19,590.38a6.35,6.35,0,0,0-3-.83,5.89,5.89,0,0,0-3.14.87,6,6,0,0,0-2.22,2.37,7.31,7.31,0,0,0,0,6.73,6,6,0,0,0,2.22,2.37,5.89,5.89,0,0,0,3.14.87,6.89,6.89,0,0,0,2.93-.72,9.35,9.35,0,0,0,2.73-1.95l3.48,3.74a13.92,13.92,0,0,1-4.41,3.11,12.26,12.26,0,0,1-11.17-.41,11.39,11.39,0,0,1-4.29-4.26,11.88,11.88,0,0,1-1.56-6,11.35,11.35,0,0,1,6-10.18,12.93,12.93,0,0,1,11.23-.47,12.28,12.28,0,0,1,4.2,2.88l-3.45,4.16A8.64,8.64,0,0,0,445.19,590.38Z" transform="translate(-159.96 -377.63)"/><path class="cls-5" d="M467.53,607.67l-3.32-6.31h-4.42v6.31h-6v-22.8h10.24q4.51,0,7,2.1a7.29,7.29,0,0,1,2.49,5.9,9.05,9.05,0,0,1-1,4.44,7.21,7.21,0,0,1-3,2.91l4.75,7.45Zm-7.74-11.06h4.32a4,4,0,0,0,2.82-.91,3.41,3.41,0,0,0,1-2.63,3.28,3.28,0,0,0-1-2.56,4.11,4.11,0,0,0-2.82-.89h-4.32Z" transform="translate(-159.96 -377.63)"/><path class="cls-5" d="M494.54,586a11.36,11.36,0,0,1,6,10.18,11.54,11.54,0,0,1-6,10.31,13.52,13.52,0,0,1-12.59,0,11.29,11.29,0,0,1-4.42-4.25,11.65,11.65,0,0,1-1.61-6.07,11.26,11.26,0,0,1,1.61-6A11.38,11.38,0,0,1,482,586a13.72,13.72,0,0,1,12.59,0Zm-9.37,4.39a6.35,6.35,0,0,0-2.29,2.42,7.25,7.25,0,0,0,0,6.83,6.59,6.59,0,0,0,2.3,2.44,5.73,5.73,0,0,0,3.12.9,5.64,5.64,0,0,0,3.1-.9,6.19,6.19,0,0,0,2.23-2.44,7.6,7.6,0,0,0,0-6.83,6.13,6.13,0,0,0-2.23-2.42,5.79,5.79,0,0,0-3.1-.88A6,6,0,0,0,485.17,590.43Z" transform="translate(-159.96 -377.63)"/><path class="cls-5" d="M515.35,590a11.35,11.35,0,0,0-3.46-.69,3.2,3.2,0,0,0-1.74.41,1.32,1.32,0,0,0-.64,1.19,1.65,1.65,0,0,0,.55,1.25,4.29,4.29,0,0,0,1.37.81c.54.21,1.34.47,2.41.8a31.59,31.59,0,0,1,3.92,1.36,7,7,0,0,1,2.65,2.1,5.87,5.87,0,0,1,1.1,3.69,6.32,6.32,0,0,1-1.2,3.89,7.28,7.28,0,0,1-3.3,2.42,12.9,12.9,0,0,1-4.67.81,16.89,16.89,0,0,1-5.64-1,15.27,15.27,0,0,1-4.86-2.71l2.31-4.65a14.22,14.22,0,0,0,4.08,2.5,11.14,11.14,0,0,0,4.18,1,3.92,3.92,0,0,0,2.09-.49,1.6,1.6,0,0,0,.77-1.43,1.68,1.68,0,0,0-.57-1.3,4.08,4.08,0,0,0-1.43-.83c-.58-.21-1.38-.45-2.43-.73a31.72,31.72,0,0,1-3.87-1.32,6.91,6.91,0,0,1-2.61-2,5.51,5.51,0,0,1-1.09-3.59,6.26,6.26,0,0,1,1.12-3.71,7.12,7.12,0,0,1,3.19-2.45,12.23,12.23,0,0,1,4.79-.86,17.59,17.59,0,0,1,4.88.69,16.22,16.22,0,0,1,4.23,1.87l-2.24,4.75A20.09,20.09,0,0,0,515.35,590Z" transform="translate(-159.96 -377.63)"/><path class="cls-5" d="M541.69,586a11.38,11.38,0,0,1,4.42,4.2,11.26,11.26,0,0,1,1.61,6,11.54,11.54,0,0,1-6,10.31,13.5,13.5,0,0,1-12.58,0,11.39,11.39,0,0,1-4.43-4.25,11.75,11.75,0,0,1-1.61-6.07,11.35,11.35,0,0,1,1.61-6,11.48,11.48,0,0,1,4.43-4.2,13.69,13.69,0,0,1,12.58,0Zm-9.36,4.39a6.38,6.38,0,0,0-2.3,2.42,7,7,0,0,0-.84,3.4,6.85,6.85,0,0,0,.86,3.43,6.56,6.56,0,0,0,2.29,2.44,5.75,5.75,0,0,0,3.12.9,5.67,5.67,0,0,0,3.11-.9,6.34,6.34,0,0,0,2.23-2.44,7.6,7.6,0,0,0,0-6.83,6.28,6.28,0,0,0-2.23-2.42,5.82,5.82,0,0,0-3.11-.88A6,6,0,0,0,532.33,590.43Z" transform="translate(-159.96 -377.63)"/><path class="cls-5" d="M550.68,584.87h17l0,4.75H556.63v5.07h10.21v4.75H556.63v8.23h-6Z" transform="translate(-159.96 -377.63)"/><path class="cls-5" d="M568.44,584.87H588v4.91h-6.83v17.89H575.2V589.78h-6.76Z" transform="translate(-159.96 -377.63)"/></svg>